<svg width="192" height="64" viewBox="0 0 192 64" fill="none" xmlns="http://www.w3.org/2000/svg">
<rect x="0.8" y="0.8" width="190.4" height="62.4" rx="10.4" stroke="white" stroke-width="1.6"/>
<path d="M130.442 30.7216V34.3872H128.144V36.7911H130.442V44.9591C130.442 47.7481 131.703 48.8638 134.878 48.8638C135.435 48.8638 135.967 48.7974 136.432 48.7177V46.3403C136.033 46.3802 135.781 46.4067 135.342 46.4067C133.921 46.4067 133.297 45.7427 133.297 44.2286V36.7911H136.432V34.3872H133.297V30.7216H130.442Z" fill="white"/>
<path d="M144.518 49.063C148.741 49.063 151.331 46.2341 151.331 41.5458C151.331 36.8841 148.728 34.0419 144.518 34.0419C140.294 34.0419 137.691 36.8841 137.691 41.5458C137.691 46.2341 140.281 49.063 144.518 49.063ZM144.518 46.5263C142.034 46.5263 140.64 44.7067 140.64 41.5458C140.64 38.4114 142.034 36.5786 144.518 36.5786C146.988 36.5786 148.396 38.4114 148.396 41.5458C148.396 44.6934 146.988 46.5263 144.518 46.5263Z" fill="white"/>
<path d="M153.547 48.7841H156.402V40.2442C156.402 38.2122 157.93 36.8442 160.094 36.8442C160.599 36.8442 161.449 36.9372 161.688 37.0169V34.2013C161.383 34.1216 160.838 34.0817 160.413 34.0817C158.527 34.0817 156.92 35.1177 156.509 36.5388H156.296V34.3208H153.547V48.7841Z" fill="white"/>
<path d="M168.778 36.4724C170.89 36.4724 172.271 37.9466 172.338 40.2177H165.033C165.192 37.9599 166.667 36.4724 168.778 36.4724ZM172.324 44.8794C171.793 46.0083 170.611 46.6325 168.885 46.6325C166.6 46.6325 165.126 45.0255 165.033 42.4888V42.3294H175.246V41.3333C175.246 36.7911 172.816 34.0419 168.792 34.0419C164.714 34.0419 162.124 36.977 162.124 41.5989C162.124 46.2208 164.661 49.063 168.805 49.063C172.112 49.063 174.423 47.4692 175.074 44.8794H172.324Z" fill="white"/>
<path d="M111.716 43.443C111.936 46.9945 114.896 49.2659 119.301 49.2659C124.009 49.2659 126.954 46.8844 126.954 43.0851C126.954 40.098 125.275 38.4461 121.2 37.4963L119.012 36.9594C116.424 36.3537 115.378 35.5415 115.378 34.1237C115.378 32.3341 117.002 31.1641 119.438 31.1641C121.751 31.1641 123.348 32.3066 123.637 34.1374H126.638C126.459 30.7924 123.513 28.4385 119.48 28.4385C115.144 28.4385 112.253 30.7924 112.253 34.3302C112.253 37.2485 113.891 38.9829 117.484 39.8226L120.044 40.4421C122.673 41.0616 123.83 41.9701 123.83 43.4843C123.83 45.2463 122.013 46.5265 119.535 46.5265C116.878 46.5265 115.033 45.3289 114.772 43.443H111.716Z" fill="white"/>
<path d="M82.1362 34.0817C80.1706 34.0817 78.4706 35.0645 77.594 36.7114H77.3815V34.3208H74.6323V53.5919H77.4878V46.5927H77.7136C78.4706 48.12 80.1042 49.0231 82.1628 49.0231C85.8151 49.0231 88.1393 46.1411 88.1393 41.5458C88.1393 36.9505 85.8151 34.0817 82.1362 34.0817ZM81.3261 46.4599C78.9354 46.4599 77.4346 44.5739 77.4346 41.5591C77.4346 38.5309 78.9354 36.645 81.3393 36.645C83.7565 36.645 85.2042 38.4911 85.2042 41.5458C85.2042 44.6138 83.7565 46.4599 81.3261 46.4599Z" fill="white"/>
<path d="M98.1311 34.0817C96.1655 34.0817 94.4655 35.0645 93.5889 36.7114H93.3764V34.3208H90.6272V53.5919H93.4826V46.5927H93.7084C94.4655 48.12 96.0991 49.0231 98.1576 49.0231C101.81 49.0231 104.134 46.1411 104.134 41.5458C104.134 36.9505 101.81 34.0817 98.1311 34.0817ZM97.3209 46.4599C94.9303 46.4599 93.4295 44.5739 93.4295 41.5591C93.4295 38.5309 94.9303 36.645 97.3342 36.645C99.7514 36.645 101.199 38.4911 101.199 41.5458C101.199 44.6138 99.7514 46.4599 97.3209 46.4599Z" fill="white"/>
<path d="M69.5091 48.7841H72.7853L65.6134 28.9203H62.2959L55.124 48.7841H58.2901L60.1209 43.5118H67.692L69.5091 48.7841ZM63.7964 32.5269H64.0304L66.9074 40.9239H60.9056L63.7964 32.5269Z" fill="white"/>
<path d="M57.042 13.9375V23.52H60.5018C63.3572 23.52 65.0107 21.7602 65.0107 18.6989C65.0107 15.684 63.3439 13.9375 60.5018 13.9375H57.042ZM58.5295 15.2922H60.3357C62.3213 15.2922 63.4967 16.554 63.4967 18.7188C63.4967 20.9168 62.3412 22.1653 60.3357 22.1653H58.5295V15.2922Z" fill="white"/>
<path d="M70.0749 23.6594C72.1866 23.6594 73.4815 22.245 73.4815 19.9008C73.4815 17.57 72.18 16.1489 70.0749 16.1489C67.9632 16.1489 66.6616 17.57 66.6616 19.9008C66.6616 22.245 67.9565 23.6594 70.0749 23.6594ZM70.0749 22.3911C68.8331 22.3911 68.1358 21.4813 68.1358 19.9008C68.1358 18.3336 68.8331 17.4172 70.0749 17.4172C71.31 17.4172 72.0139 18.3336 72.0139 19.9008C72.0139 21.4747 71.31 22.3911 70.0749 22.3911Z" fill="white"/>
<path d="M84.5089 16.2883H83.0812L81.7929 21.8067H81.68L80.1925 16.2883H78.8246L77.3371 21.8067H77.2308L75.9359 16.2883H74.4882L76.4804 23.52H77.948L79.4355 18.1942H79.5484L81.0425 23.52H82.5234L84.5089 16.2883Z" fill="white"/>
<path d="M86.1532 23.52H87.5809V19.2899C87.5809 18.161 88.2516 17.4571 89.3075 17.4571C90.3633 17.4571 90.868 18.0348 90.868 19.1969V23.52H92.2957V18.8383C92.2957 17.1184 91.4059 16.1489 89.7922 16.1489C88.7032 16.1489 87.986 16.6336 87.634 17.4372H87.5278V16.2883H86.1532V23.52Z" fill="white"/>
<path d="M94.5443 23.52H95.972V13.4661H94.5443V23.52Z" fill="white"/>
<path d="M101.342 23.6594C103.453 23.6594 104.748 22.245 104.748 19.9008C104.748 17.57 103.447 16.1489 101.342 16.1489C99.2299 16.1489 97.9283 17.57 97.9283 19.9008C97.9283 22.245 99.2232 23.6594 101.342 23.6594ZM101.342 22.3911C100.1 22.3911 99.4025 21.4813 99.4025 19.9008C99.4025 18.3336 100.1 17.4172 101.342 17.4172C102.577 17.4172 103.281 18.3336 103.281 19.9008C103.281 21.4747 102.577 22.3911 101.342 22.3911Z" fill="white"/>
<path d="M109.002 22.4375C108.225 22.4375 107.661 22.059 107.661 21.4083C107.661 20.7708 108.112 20.4321 109.108 20.3657L110.875 20.2528V20.8571C110.875 21.7536 110.078 22.4375 109.002 22.4375ZM108.637 23.6395C109.587 23.6395 110.377 23.2278 110.808 22.504H110.921V23.52H112.296V18.5793C112.296 17.052 111.273 16.1489 109.46 16.1489C107.82 16.1489 106.651 16.9458 106.505 18.1875H107.887C108.046 17.6762 108.597 17.384 109.394 17.384C110.37 17.384 110.875 17.8157 110.875 18.5793V19.2036L108.916 19.3165C107.196 19.4227 106.226 20.1731 106.226 21.4747C106.226 22.7961 107.242 23.6395 108.637 23.6395Z" fill="white"/>
<path d="M117.141 23.6395C118.137 23.6395 118.98 23.168 119.412 22.3778H119.525V23.52H120.893V13.4661H119.465V17.4372H119.359C118.967 16.6403 118.13 16.1688 117.141 16.1688C115.315 16.1688 114.139 17.6165 114.139 19.9008C114.139 22.1918 115.302 23.6395 117.141 23.6395ZM117.546 17.4504C118.741 17.4504 119.492 18.4 119.492 19.9075C119.492 21.4215 118.748 22.3579 117.546 22.3579C116.337 22.3579 115.614 21.4348 115.614 19.9008C115.614 18.3801 116.344 17.4504 117.546 17.4504Z" fill="white"/>
<path d="M130.151 23.6594C132.263 23.6594 133.558 22.245 133.558 19.9008C133.558 17.57 132.256 16.1489 130.151 16.1489C128.04 16.1489 126.738 17.57 126.738 19.9008C126.738 22.245 128.033 23.6594 130.151 23.6594ZM130.151 22.3911C128.909 22.3911 128.212 21.4813 128.212 19.9008C128.212 18.3336 128.909 17.4172 130.151 17.4172C131.386 17.4172 132.09 18.3336 132.09 19.9008C132.09 21.4747 131.386 22.3911 130.151 22.3911Z" fill="white"/>
<path d="M135.448 23.52H136.876V19.2899C136.876 18.161 137.546 17.4571 138.602 17.4571C139.658 17.4571 140.163 18.0348 140.163 19.1969V23.52H141.59V18.8383C141.59 17.1184 140.701 16.1489 139.087 16.1489C137.998 16.1489 137.281 16.6336 136.929 17.4372H136.822V16.2883H135.448V23.52Z" fill="white"/>
<path d="M148.166 14.4887V16.3215H147.017V17.5235H148.166V21.6075C148.166 23.002 148.797 23.5598 150.384 23.5598C150.663 23.5598 150.928 23.5266 151.161 23.4868V22.2981C150.962 22.318 150.836 22.3313 150.616 22.3313C149.906 22.3313 149.594 21.9993 149.594 21.2422V17.5235H151.161V16.3215H149.594V14.4887H148.166Z" fill="white"/>
<path d="M153.077 23.52H154.505V19.2965C154.505 18.2008 155.156 17.4637 156.325 17.4637C157.334 17.4637 157.872 18.0481 157.872 19.2036V23.52H159.3V18.8516C159.3 17.1317 158.35 16.1555 156.809 16.1555C155.72 16.1555 154.957 16.6403 154.605 17.4504H154.492V13.4661H153.077V23.52Z" fill="white"/>
<path d="M164.45 17.3641C165.506 17.3641 166.197 18.1012 166.23 19.2368H162.577C162.657 18.1079 163.394 17.3641 164.45 17.3641ZM166.223 21.5676C165.958 22.1321 165.367 22.4442 164.503 22.4442C163.361 22.4442 162.624 21.6407 162.577 20.3723V20.2926H167.684V19.7946C167.684 17.5235 166.469 16.1489 164.457 16.1489C162.418 16.1489 161.123 17.6165 161.123 19.9274C161.123 22.2383 162.392 23.6594 164.463 23.6594C166.117 23.6594 167.272 22.8625 167.598 21.5676H166.223Z" fill="white"/>
<path d="M39.6308 32.4812C39.6654 29.7916 41.1099 27.2467 43.4013 25.8379C41.9557 23.7734 39.5345 22.4644 37.0154 22.3856C34.3286 22.1036 31.7239 23.9934 30.3548 23.9934C28.9591 23.9934 26.8511 22.4136 24.5812 22.4603C21.6224 22.5559 18.864 24.2381 17.4245 26.8249C14.3301 32.1824 16.6382 40.0561 19.6024 44.3866C21.0855 46.5072 22.8187 48.8759 25.0866 48.7919C27.3059 48.6999 28.1348 47.3768 30.8137 47.3768C33.4677 47.3768 34.2453 48.7919 36.5593 48.7385C38.9407 48.6999 40.4411 46.6085 41.8721 44.4679C42.9377 42.9569 43.7576 41.287 44.3016 39.5199C41.503 38.3362 39.634 35.5198 39.6308 32.4812Z" fill="white"/>
<path d="M35.2601 19.5376C36.5586 17.9789 37.1983 15.9754 37.0433 13.9526C35.0596 14.161 33.2272 15.1091 31.9112 16.608C30.6244 18.0725 29.9547 20.0408 30.0813 21.9862C32.0657 22.0067 34.0166 21.0843 35.2601 19.5376Z" fill="white"/>
</svg>
