<svg width="216" height="64" viewBox="0 0 216 64" fill="none" xmlns="http://www.w3.org/2000/svg">
<rect x="0.8" y="0.8" width="214.4" height="62.4" rx="7.2" fill="black"/>
<rect x="0.8" y="0.8" width="214.4" height="62.4" rx="7.2" stroke="#A6A6A6" stroke-width="1.6"/>
<path d="M109.017 34.8018C105.254 34.8018 102.187 37.6642 102.187 41.6066C102.187 45.525 105.254 48.4114 109.017 48.4114C112.782 48.4114 115.849 45.525 115.849 41.6066C115.848 37.6642 112.781 34.8018 109.017 34.8018ZM109.017 45.733C106.955 45.733 105.177 44.0322 105.177 41.6082C105.177 39.1586 106.957 37.4834 109.017 37.4834C111.08 37.4834 112.857 39.1586 112.857 41.6082C112.857 44.0306 111.08 45.733 109.017 45.733ZM94.115 34.8018C90.3518 34.8018 87.2846 37.6642 87.2846 41.6066C87.2846 45.525 90.3518 48.4114 94.115 48.4114C97.8798 48.4114 100.947 45.525 100.947 41.6066C100.947 37.6642 97.8798 34.8018 94.115 34.8018ZM94.115 45.733C92.0526 45.733 90.275 44.0322 90.275 41.6082C90.275 39.1586 92.0542 37.4834 94.115 37.4834C96.1774 37.4834 97.955 39.1586 97.955 41.6082C97.9566 44.0306 96.1774 45.733 94.115 45.733ZM76.3902 36.8914V39.7778H83.299C83.0926 41.4018 82.5518 42.5874 81.7262 43.4114C80.7214 44.4162 79.1486 45.525 76.3902 45.525C72.1374 45.525 68.8126 42.0962 68.8126 37.8434C68.8126 33.5906 72.1374 30.1618 76.3902 30.1618C78.6846 30.1618 80.3598 31.0642 81.5966 32.2242L83.6334 30.1874C81.9054 28.5378 79.6126 27.2754 76.3902 27.2754C70.5646 27.2754 65.667 32.0178 65.667 37.8434C65.667 43.669 70.5646 48.4114 76.3902 48.4114C79.5342 48.4114 81.907 47.3794 83.7614 45.4466C85.6686 43.5394 86.2622 40.8578 86.2622 38.693C86.2622 38.0242 86.211 37.405 86.107 36.8898H76.3902V36.8914ZM148.883 39.133C148.317 37.613 146.589 34.8018 143.057 34.8018C139.552 34.8018 136.638 37.5602 136.638 41.6066C136.638 45.421 139.526 48.4114 143.392 48.4114C146.51 48.4114 148.315 46.5042 149.064 45.3954L146.744 43.8482C145.971 44.9826 144.913 45.7298 143.392 45.7298C141.872 45.7298 140.789 45.0338 140.093 43.6674L149.192 39.9042L148.883 39.133ZM139.603 41.4018C139.526 38.7714 141.64 37.4322 143.161 37.4322C144.347 37.4322 145.352 38.0258 145.688 38.8754L139.603 41.4018ZM132.206 48.0002H135.195V27.9986H132.206V48.0002ZM127.307 36.3234H127.205C126.534 35.5234 125.245 34.8018 123.622 34.8018C120.219 34.8018 117.101 37.7922 117.101 41.6338C117.101 45.4482 120.219 48.413 123.622 48.413C125.246 48.413 126.534 47.6914 127.205 46.8674H127.307V47.8466C127.307 50.4498 125.915 51.8418 123.673 51.8418C121.843 51.8418 120.709 50.5282 120.245 49.4194L117.641 50.5026C118.389 52.3058 120.373 54.5234 123.673 54.5234C127.179 54.5234 130.144 52.461 130.144 47.4338V35.2162H127.309V36.3234H127.307ZM123.88 45.733C121.817 45.733 120.091 44.005 120.091 41.6338C120.091 39.2354 121.817 37.4834 123.88 37.4834C125.915 37.4834 127.513 39.2354 127.513 41.6338C127.513 44.005 125.915 45.733 123.88 45.733ZM162.889 27.9986H155.736V48.0002H158.72V40.4226H162.888C166.197 40.4226 169.451 38.0274 169.451 34.2114C169.451 30.3954 166.198 27.9986 162.889 27.9986ZM162.966 37.6386H158.72V30.7826H162.966C165.198 30.7826 166.465 32.6306 166.465 34.2114C166.465 35.7602 165.198 37.6386 162.966 37.6386ZM181.417 34.7666C179.256 34.7666 177.017 35.7186 176.091 37.829L178.741 38.9346C179.307 37.829 180.363 37.4674 181.469 37.4674C183.013 37.4674 184.582 38.3938 184.608 40.0402V40.2466C184.067 39.9378 182.909 39.4754 181.494 39.4754C178.638 39.4754 175.729 41.045 175.729 43.9778C175.729 46.6546 178.072 48.3778 180.696 48.3778C182.702 48.3778 183.809 47.477 184.504 46.421H184.606V47.965H187.489V40.2962C187.491 36.7474 184.838 34.7666 181.417 34.7666ZM181.056 45.7282C180.08 45.7282 178.715 45.2386 178.715 44.029C178.715 42.485 180.414 41.893 181.881 41.893C183.192 41.893 183.811 42.1762 184.608 42.5618C184.376 44.4162 182.781 45.7282 181.056 45.7282ZM197.989 35.2034L194.566 43.8754H194.464L190.912 35.2034H187.696L193.022 47.3234L189.985 54.0658H193.099L201.309 35.2034H197.989ZM171.099 48.0002H174.083V27.9986H171.099V48.0002Z" fill="white"/>
<path d="M75.8687 16.3886C75.8687 17.7294 75.4719 18.7966 74.6767 19.5934C73.7743 20.5406 72.5967 21.0142 71.1503 21.0142C69.7647 21.0142 68.5855 20.5342 67.6175 19.5742C66.6479 18.6126 66.1631 17.4222 66.1631 16.0014C66.1631 14.579 66.6479 13.3886 67.6175 12.4286C68.5855 11.467 69.7647 10.987 71.1503 10.987C71.8383 10.987 72.4959 11.1214 73.1199 11.3886C73.7455 11.6574 74.2463 12.0142 74.6207 12.4606L73.7775 13.3054C73.1423 12.5454 72.2671 12.1662 71.1487 12.1662C70.1375 12.1662 69.2639 12.5214 68.5263 13.2318C67.7887 13.9422 67.4207 14.8654 67.4207 15.9998C67.4207 17.1342 67.7887 18.0574 68.5263 18.7678C69.2639 19.4782 70.1375 19.8334 71.1487 19.8334C72.2207 19.8334 73.1151 19.4766 73.8303 18.7614C74.2943 18.2958 74.5631 17.6478 74.6351 16.8174H71.1487V15.6638H75.7999C75.8479 15.915 75.8687 16.1566 75.8687 16.3886Z" fill="white"/>
<path d="M83.2448 12.3791H78.8736V15.4223H82.816V16.5759H78.8736V19.6191H83.2448V20.7999H77.64V11.1999H83.2448V12.3791Z" fill="white"/>
<path d="M88.4463 20.7999H87.2127V12.3791H84.5311V11.1999H91.1279V12.3791H88.4463V20.7999Z" fill="white"/>
<path d="M95.9006 20.7999V11.1999H97.1342V20.7999H95.9006Z" fill="white"/>
<path d="M102.605 20.7999H101.371V12.3791H98.6896V11.1999H105.286V12.3791H102.605V20.7999Z" fill="white"/>
<path d="M117.774 19.5599C116.83 20.5295 115.657 21.0143 114.254 21.0143C112.851 21.0143 111.678 20.5295 110.736 19.5599C109.792 18.5903 109.321 17.4031 109.321 15.9999C109.321 14.5967 109.792 13.4095 110.736 12.4399C111.678 11.4703 112.851 10.9839 114.254 10.9839C115.649 10.9839 116.82 11.4719 117.768 12.4463C118.715 13.4207 119.188 14.6047 119.188 15.9999C119.188 17.4031 118.716 18.5903 117.774 19.5599ZM111.646 18.7551C112.356 19.4751 113.225 19.8335 114.254 19.8335C115.283 19.8335 116.153 19.4735 116.862 18.7551C117.572 18.0351 117.929 17.1167 117.929 15.9999C117.929 14.8831 117.572 13.9647 116.862 13.2447C116.153 12.5247 115.283 12.1663 114.254 12.1663C113.225 12.1663 112.356 12.5263 111.646 13.2447C110.937 13.9647 110.58 14.8831 110.58 15.9999C110.58 17.1167 110.937 18.0351 111.646 18.7551Z" fill="white"/>
<path d="M120.92 20.7999V11.1999H122.421L127.086 18.6671H127.139L127.086 16.8175V11.1999H128.32V20.7999H127.032L122.15 12.9695H122.097L122.15 14.8191V20.7999H120.92Z" fill="white"/>
<path d="M75.8687 16.3886C75.8687 17.7294 75.4719 18.7966 74.6767 19.5934C73.7743 20.5406 72.5967 21.0142 71.1503 21.0142C69.7647 21.0142 68.5855 20.5342 67.6175 19.5742C66.6479 18.6126 66.1631 17.4222 66.1631 16.0014C66.1631 14.579 66.6479 13.3886 67.6175 12.4286C68.5855 11.467 69.7647 10.987 71.1503 10.987C71.8383 10.987 72.4959 11.1214 73.1199 11.3886C73.7455 11.6574 74.2463 12.0142 74.6207 12.4606L73.7775 13.3054C73.1423 12.5454 72.2671 12.1662 71.1487 12.1662C70.1375 12.1662 69.2639 12.5214 68.5263 13.2318C67.7887 13.9422 67.4207 14.8654 67.4207 15.9998C67.4207 17.1342 67.7887 18.0574 68.5263 18.7678C69.2639 19.4782 70.1375 19.8334 71.1487 19.8334C72.2207 19.8334 73.1151 19.4766 73.8303 18.7614C74.2943 18.2958 74.5631 17.6478 74.6351 16.8174H71.1487V15.6638H75.7999C75.8479 15.915 75.8687 16.1566 75.8687 16.3886Z" stroke="white" stroke-width="0.32" stroke-miterlimit="10"/>
<path d="M83.2448 12.3791H78.8736V15.4223H82.816V16.5759H78.8736V19.6191H83.2448V20.7999H77.64V11.1999H83.2448V12.3791Z" stroke="white" stroke-width="0.32" stroke-miterlimit="10"/>
<path d="M88.4463 20.7999H87.2127V12.3791H84.5311V11.1999H91.1279V12.3791H88.4463V20.7999Z" stroke="white" stroke-width="0.32" stroke-miterlimit="10"/>
<path d="M95.9006 20.7999V11.1999H97.1342V20.7999H95.9006Z" stroke="white" stroke-width="0.32" stroke-miterlimit="10"/>
<path d="M102.605 20.7999H101.371V12.3791H98.6896V11.1999H105.286V12.3791H102.605V20.7999Z" stroke="white" stroke-width="0.32" stroke-miterlimit="10"/>
<path d="M117.774 19.5599C116.83 20.5295 115.657 21.0143 114.254 21.0143C112.851 21.0143 111.678 20.5295 110.736 19.5599C109.792 18.5903 109.321 17.4031 109.321 15.9999C109.321 14.5967 109.792 13.4095 110.736 12.4399C111.678 11.4703 112.851 10.9839 114.254 10.9839C115.649 10.9839 116.82 11.4719 117.768 12.4463C118.715 13.4207 119.188 14.6047 119.188 15.9999C119.188 17.4031 118.716 18.5903 117.774 19.5599ZM111.646 18.7551C112.356 19.4751 113.225 19.8335 114.254 19.8335C115.283 19.8335 116.153 19.4735 116.862 18.7551C117.572 18.0351 117.929 17.1167 117.929 15.9999C117.929 14.8831 117.572 13.9647 116.862 13.2447C116.153 12.5247 115.283 12.1663 114.254 12.1663C113.225 12.1663 112.356 12.5263 111.646 13.2447C110.937 13.9647 110.58 14.8831 110.58 15.9999C110.58 17.1167 110.937 18.0351 111.646 18.7551Z" stroke="white" stroke-width="0.32" stroke-miterlimit="10"/>
<path d="M120.92 20.7999V11.1999H122.421L127.086 18.6671H127.139L127.086 16.8175V11.1999H128.32V20.7999H127.032L122.15 12.9695H122.097L122.15 14.8191V20.7999H120.92Z" stroke="white" stroke-width="0.32" stroke-miterlimit="10"/>
<g filter="url(#filter0_ii_227_200)">
<path d="M16.6978 12.0609C16.2322 12.5537 15.957 13.3185 15.957 14.3089V49.6945C15.957 50.6865 16.2322 51.4497 16.6978 51.9425L16.8162 52.0577L36.6386 32.2353V32.0017V31.7681L16.8162 11.9441L16.6978 12.0609Z" fill="url(#paint0_linear_227_200)"/>
<path d="M43.2451 38.845L36.6387 32.2354V32.0018V31.7682L43.2467 25.1602L43.3955 25.245L51.2243 29.693C53.4595 30.9634 53.4595 33.0418 51.2243 34.3138L43.3955 38.7618L43.2451 38.845Z" fill="url(#paint1_linear_227_200)"/>
<g filter="url(#filter1_i_227_200)">
<path d="M43.3954 38.7601L36.637 32.0017L16.6978 51.9425C17.4338 52.7233 18.6514 52.8193 20.0226 52.0417L43.3954 38.7601Z" fill="url(#paint2_linear_227_200)"/>
</g>
<path d="M43.3954 25.2433L20.0226 11.9633C18.6514 11.1841 17.4338 11.2817 16.6978 12.0625L36.6386 32.0033L43.3954 25.2433Z" fill="url(#paint3_linear_227_200)"/>
</g>
<defs>
<filter id="filter0_ii_227_200" x="15.957" y="11.4255" width="36.9438" height="41.1533" filterUnits="userSpaceOnUse" color-interpolation-filters="sRGB">
<feFlood flood-opacity="0" result="BackgroundImageFix"/>
<feBlend mode="normal" in="SourceGraphic" in2="BackgroundImageFix" result="shape"/>
<feColorMatrix in="SourceAlpha" type="matrix" values="0 0 0 0 0 0 0 0 0 0 0 0 0 0 0 0 0 0 127 0" result="hardAlpha"/>
<feOffset dy="-0.24"/>
<feComposite in2="hardAlpha" operator="arithmetic" k2="-1" k3="1"/>
<feColorMatrix type="matrix" values="0 0 0 0 0 0 0 0 0 0 0 0 0 0 0 0 0 0 0.12 0"/>
<feBlend mode="normal" in2="shape" result="effect1_innerShadow_227_200"/>
<feColorMatrix in="SourceAlpha" type="matrix" values="0 0 0 0 0 0 0 0 0 0 0 0 0 0 0 0 0 0 127 0" result="hardAlpha"/>
<feOffset dy="0.24"/>
<feComposite in2="hardAlpha" operator="arithmetic" k2="-1" k3="1"/>
<feColorMatrix type="matrix" values="0 0 0 0 1 0 0 0 0 1 0 0 0 0 1 0 0 0 0.25 0"/>
<feBlend mode="normal" in2="effect1_innerShadow_227_200" result="effect2_innerShadow_227_200"/>
</filter>
<filter id="filter1_i_227_200" x="16.6978" y="32.0017" width="26.6978" height="20.5771" filterUnits="userSpaceOnUse" color-interpolation-filters="sRGB">
<feFlood flood-opacity="0" result="BackgroundImageFix"/>
<feBlend mode="normal" in="SourceGraphic" in2="BackgroundImageFix" result="shape"/>
<feColorMatrix in="SourceAlpha" type="matrix" values="0 0 0 0 0 0 0 0 0 0 0 0 0 0 0 0 0 0 127 0" result="hardAlpha"/>
<feOffset dy="-0.24"/>
<feComposite in2="hardAlpha" operator="arithmetic" k2="-1" k3="1"/>
<feColorMatrix type="matrix" values="0 0 0 0 0 0 0 0 0 0 0 0 0 0 0 0 0 0 0.08 0"/>
<feBlend mode="normal" in2="shape" result="effect1_innerShadow_227_200"/>
</filter>
<linearGradient id="paint0_linear_227_200" x1="34.8815" y1="13.9345" x2="8.03031" y2="40.7857" gradientUnits="userSpaceOnUse">
<stop stop-color="#00A0FF"/>
<stop offset="0.0066" stop-color="#00A1FF"/>
<stop offset="0.2601" stop-color="#00BEFF"/>
<stop offset="0.5122" stop-color="#00D2FF"/>
<stop offset="0.7604" stop-color="#00DFFF"/>
<stop offset="1" stop-color="#00E3FF"/>
</linearGradient>
<linearGradient id="paint1_linear_227_200" x1="54.1339" y1="32.0018" x2="15.4204" y2="32.0018" gradientUnits="userSpaceOnUse">
<stop stop-color="#FFE000"/>
<stop offset="0.4087" stop-color="#FFBD00"/>
<stop offset="0.7754" stop-color="#FFA500"/>
<stop offset="1" stop-color="#FF9C00"/>
</linearGradient>
<linearGradient id="paint2_linear_227_200" x1="39.7251" y1="35.6719" x2="3.31152" y2="72.0856" gradientUnits="userSpaceOnUse">
<stop stop-color="#FF3A44"/>
<stop offset="1" stop-color="#C31162"/>
</linearGradient>
<linearGradient id="paint3_linear_227_200" x1="11.676" y1="0.282938" x2="27.9357" y2="16.5426" gradientUnits="userSpaceOnUse">
<stop stop-color="#32A071"/>
<stop offset="0.0685" stop-color="#2DA771"/>
<stop offset="0.4762" stop-color="#15CF74"/>
<stop offset="0.8009" stop-color="#06E775"/>
<stop offset="1" stop-color="#00F076"/>
</linearGradient>
</defs>
</svg>
